<?xml version="1.0" standalone="no"?>
<!DOCTYPE svg PUBLIC "-//W3C//DTD SVG 20010904//EN"
 "http://www.w3.org/TR/2001/REC-SVG-20010904/DTD/svg10.dtd">
<svg version="1.0" xmlns="http://www.w3.org/2000/svg"
 width="225.000000pt" height="225.000000pt" viewBox="0 0 225.000000 225.000000"
 preserveAspectRatio="xMidYMid meet">

<g transform="translate(0.000000,225.000000) scale(0.100000,-0.100000)"
fill="#000000" stroke="none">
<path d="M1035 1763 c-238 -32 -458 -225 -531 -468 -25 -82 -25 -258 0 -340
64 -213 239 -388 451 -451 80 -24 246 -24 335 0 171 46 331 178 409 336 72
147 86 294 45 453 -42 165 -177 329 -334 406 -119 58 -250 81 -375 64z m225
-260 c46 -16 130 -68 130 -81 0 -4 -24 -32 -54 -61 l-54 -54 -27 21 c-78 61
-211 46 -290 -33 -43 -42 -75 -116 -75 -170 0 -54 32 -128 75 -170 105 -105
288 -92 354 26 12 20 21 42 21 48 0 7 -35 11 -105 11 l-105 0 0 80 0 80 191 0
191 0 -4 -102 c-3 -85 -8 -113 -30 -158 -37 -79 -89 -135 -161 -170 -210 -103
-445 -23 -549 187 -31 63 -33 74 -33 168 0 94 2 105 33 168 93 188 296 275
492 210z"/>
</g>
</svg>
