<?xml version="1.0" standalone="no"?>
<!DOCTYPE svg PUBLIC "-//W3C//DTD SVG 20010904//EN"
 "http://www.w3.org/TR/2001/REC-SVG-20010904/DTD/svg10.dtd">
<svg version="1.0" xmlns="http://www.w3.org/2000/svg"
 width="300.000000pt" height="103.000000pt" viewBox="0 0 300.000000 103.000000"
 preserveAspectRatio="xMidYMid meet">

<g transform="translate(0.000000,103.000000) scale(0.100000,-0.100000)"
fill="#000000" stroke="none">
<path d="M1035 770 c-78 -40 -248 -92 -335 -102 -17 -2 24 -22 130 -64 205
-81 237 -91 252 -76 9 9 227 12 865 12 562 0 853 3 853 10 0 7 -292 10 -855
10 l-855 0 -1 98 c0 53 -4 105 -7 115 -7 16 -10 16 -47 -3z"/>
<path d="M1185 727 c-9 -36 -2 -100 13 -105 9 -3 12 13 12 57 0 62 -15 90 -25
48z"/>
<path d="M1290 683 c0 -67 15 -79 22 -18 l3 30 25 -37 c37 -55 50 -49 50 22 0
33 -4 60 -10 60 -5 0 -10 -13 -10 -30 0 -38 -14 -38 -36 0 -32 54 -44 46 -44
-27z"/>
<path d="M1493 742 c-21 -13 -33 -60 -23 -87 21 -55 115 -50 115 5 0 20 -6 26
-27 28 -30 4 -38 -12 -13 -22 20 -7 19 -22 -1 -30 -29 -11 -55 12 -52 46 4 40
30 58 59 40 27 -17 40 -5 15 14 -22 15 -54 18 -73 6z"/>
<path d="M1667 743 c-4 -3 -7 -33 -7 -65 l0 -58 51 0 c31 0 48 4 44 10 -3 6
-22 10 -41 10 -24 0 -34 5 -34 15 0 10 10 15 29 15 17 0 33 5 36 10 3 6 -4 10
-17 10 -13 0 -29 4 -37 9 -22 14 -3 31 35 31 21 0 33 4 29 10 -7 11 -78 14
-88 3z"/>
<path d="M1837 744 c-11 -11 -8 -124 3 -124 6 0 10 10 10 23 0 46 16 51 39 13
34 -55 51 -47 51 23 0 33 -4 63 -10 66 -6 4 -10 -6 -10 -23 0 -44 -12 -46 -45
-7 -16 20 -33 33 -38 29z"/>
<path d="M2020 686 c0 -37 4 -66 10 -66 6 0 10 26 10 59 0 33 -4 63 -10 66 -6
4 -10 -18 -10 -59z"/>
<path d="M2120 685 l0 -65 51 0 c31 0 48 4 44 10 -3 6 -22 10 -41 10 -24 0
-34 5 -34 15 0 10 10 15 29 15 42 0 48 18 9 22 -22 2 -34 9 -36 21 -3 14 4 17
32 17 20 0 36 5 36 10 0 6 -20 10 -45 10 l-45 0 0 -65z"/>
<path d="M2297 743 c-11 -10 -8 -123 3 -123 6 0 10 9 10 20 0 34 29 36 55 4
26 -32 44 -28 23 5 -10 17 -10 25 0 41 15 25 15 25 -4 44 -15 16 -75 22 -87 9z
m68 -33 c0 -18 -33 -26 -47 -12 -6 6 -7 15 -3 22 10 16 50 8 50 -10z"/>
<path d="M2475 738 c-9 -24 -1 -113 10 -111 14 4 19 103 6 116 -7 7 -12 5 -16
-5z"/>
<path d="M2604 733 c-4 -10 -15 -38 -25 -62 -20 -46 -17 -69 5 -38 17 22 55
22 72 0 25 -35 26 -2 2 54 -26 61 -44 76 -54 46z m26 -43 c0 -5 -4 -10 -10
-10 -5 0 -10 5 -10 10 0 6 5 10 10 10 6 0 10 -4 10 -10z"/>
<path d="M186 673 c-3 -3 -6 -69 -6 -145 0 -104 3 -138 13 -138 30 0 401 128
405 140 3 9 -1 11 -11 7 -40 -15 -291 69 -366 122 -16 11 -31 18 -35 14z"/>
</g>
</svg>
