<?xml version="1.0" standalone="no"?>
<!DOCTYPE svg PUBLIC "-//W3C//DTD SVG 20010904//EN"
 "http://www.w3.org/TR/2001/REC-SVG-20010904/DTD/svg10.dtd">
<svg version="1.0" xmlns="http://www.w3.org/2000/svg"
 width="553.000000pt" height="379.000000pt" viewBox="0 0 553.000000 379.000000"
 preserveAspectRatio="xMidYMid meet">

<g transform="translate(0.000000,379.000000) scale(0.100000,-0.100000)"
fill="#000000" stroke="none">
<path d="M5420 2870 l0 -30 -90 0 -90 0 0 -30 0 -30 -60 0 -60 0 0 -30 c0 -27
-3 -30 -30 -30 -27 0 -30 -3 -30 -30 l0 -30 -90 0 -90 0 0 -30 0 -30 -60 0
-60 0 0 -30 0 -30 -90 0 -90 0 0 -30 0 -30 -90 0 -90 0 0 -30 0 -30 -90 0 -90
0 0 -30 0 -30 -150 0 -150 0 0 -30 0 -30 -120 0 -120 0 0 -30 0 -30 -90 0 -90
0 0 -30 0 -30 -210 0 -210 0 0 -30 0 -30 60 0 60 0 0 -30 0 -30 90 0 90 0 0
-30 0 -30 60 0 60 0 0 -30 0 -30 60 0 60 0 0 -30 0 -30 90 0 90 0 0 -30 0 -30
90 0 90 0 0 -30 0 -30 60 0 60 0 0 -30 0 -30 60 0 60 0 0 -30 0 -30 90 0 90 0
0 -30 0 -30 60 0 60 0 0 -30 0 -30 90 0 90 0 0 -30 0 -30 90 0 90 0 0 -30 0
-30 120 0 120 0 0 -30 0 -30 60 0 60 0 0 -30 0 -30 120 0 120 0 0 30 c0 25 4
30 25 30 l25 0 0 690 0 690 -25 0 c-25 0 -25 1 -25 90 l0 90 -30 0 c-27 0 -30
-3 -30 -30z"/>
<path d="M140 2210 c0 -27 -3 -30 -30 -30 l-30 0 0 -840 0 -840 120 0 120 0 0
30 0 30 90 0 90 0 0 30 0 30 90 0 90 0 0 30 0 30 90 0 90 0 0 30 0 30 120 0
120 0 0 30 0 30 90 0 90 0 0 30 0 30 60 0 60 0 0 30 0 30 90 0 90 0 0 30 0 30
90 0 90 0 0 30 0 30 120 0 120 0 0 30 0 30 60 0 60 0 0 30 0 30 120 0 120 0 0
30 0 30 90 0 90 0 0 30 c0 27 3 30 30 30 l30 0 0 60 0 60 -60 0 -60 0 0 -30 0
-30 -60 0 -60 0 0 30 0 30 -120 0 -120 0 0 30 0 30 -150 0 -150 0 0 30 0 30
-90 0 -90 0 0 30 0 30 -120 0 -120 0 0 30 0 30 -90 0 -90 0 0 30 0 30 -90 0
-90 0 0 30 0 30 -60 0 -60 0 0 30 0 30 -60 0 -60 0 0 30 0 30 -60 0 -60 0 0
30 0 30 -60 0 -60 0 0 30 0 30 -60 0 -60 0 0 30 c0 27 -3 30 -30 30 -27 0 -30
3 -30 30 l0 30 -60 0 -60 0 0 30 c0 27 -3 30 -30 30 -27 0 -30 3 -30 30 0 27
-3 30 -30 30 -27 0 -30 -3 -30 -30z"/>
</g>
</svg>
